# xmcd
#
# Track frame offsets:
# 150
# 17391
# 36092
# 53999
# 71978
# 88409
# 105299
# 122072
# 140981
# 157256
# 172634
#
# Disc length: 2520 seconds
#
#
# Revision: 0
# Processed by: cddbd v1.5.1PL2 Copyright (c) Steve Scherf et al.
# Submitted via: FreeRIP 2.943 
#
DISCID=9609d60b
DTITLE=Valderrama - Ilusion
DYEAR=2006
DGENRE=Other
TTITLE0=Despierta
TTITLE1=Si tu me pidieras
TTITLE2=LLevate
TTITLE3=Que no se entere él
TTITLE4=Quiero
TTITLE5=Ella sabe
TTITLE6=Mala suerte
TTITLE7=Yo la vi
TTITLE8=Mañana
TTITLE9=Mi Pueblo
TTITLE10=Por qué te vas
EXTD=
EXTT0=
EXTT1=
EXTT2=
EXTT3=
EXTT4=
EXTT5=
EXTT6=
EXTT7=
EXTT8=
EXTT9=
EXTT10=Bonus Track
PLAYORDER=
